# This file uses centimeters as units for non-parametric coordinates.

mtllib roof_box.mtl
g default
v -0.337219 -0.010389 0.337219
v 0.337219 -0.010389 0.337219
v -0.337219 -0.010389 -0.337219
v 0.337219 -0.010389 -0.337219
v -0.337219 0.259387 0.337219
v -0.337219 0.259387 -0.337219
v 0.337219 0.259387 -0.337219
v 0.337219 0.259387 0.337219
v -0.372080 0.704220 0.372080
v 0.372080 0.704220 0.372080
v 0.372080 0.704220 -0.372080
v -0.372080 0.704220 -0.372080
v -0.372080 0.257724 0.372080
v -0.372080 0.257724 -0.372080
v 0.372080 0.257724 -0.372080
v 0.372080 0.257724 0.372080
v -0.372080 0.659570 0.372080
v -0.372080 0.659570 -0.372080
v 0.372080 0.659570 -0.372080
v 0.372080 0.659570 0.372080
v -0.372080 0.629072 0.372080
v -0.372080 0.629072 -0.372080
v 0.372080 0.629072 -0.372080
v 0.372080 0.629072 0.372080
v -0.392506 0.628235 0.392506
v -0.392506 0.628235 -0.392506
v -0.392506 0.660407 0.392506
v -0.392506 0.660407 -0.392506
v 0.392506 0.660407 -0.392506
v 0.392506 0.628235 -0.392506
v 0.392506 0.628235 0.392506
v 0.392506 0.660407 0.392506
v -0.274766 0.579242 -0.372785
v -0.147257 0.579242 -0.372785
v -0.147257 0.392746 -0.372785
v -0.274766 0.392746 -0.372785
v -0.274766 0.579242 -0.416141
v -0.147257 0.579242 -0.416141
v -0.147257 0.392746 -0.416141
v -0.274766 0.392746 -0.416141
vt 0.516929 0.868484
vt 0.731708 0.868446
vt 0.020737 0.468653
vt 0.257719 0.468661
vt 0.020730 0.705635
vt 0.257711 0.705643
vt 0.302150 0.868521
vt 0.087372 0.868558
vt 0.345397 0.662745
vt 0.560176 0.662745
vt 0.946487 0.868409
vt 0.302165 0.954432
vt 0.946502 0.954320
vt 0.727427 0.141026
vt 0.964410 0.141058
vt 0.253463 0.140955
vt 0.006518 0.468653
vt 0.020729 0.719854
vt 0.257711 0.719862
vt 0.271930 0.705643
vt 0.257720 0.454442
vt 0.987779 0.985287
vt 0.727444 0.022767
vt 0.964426 0.022800
vt 0.016499 0.022662
vt 0.745632 0.985287
vt 0.249990 0.957037
vt 0.994189 0.978868
vt 0.500020 0.966310
vt 0.000000 0.712139
vt 0.014224 0.726364
vt 0.264216 0.726372
vt 0.000000 0.958010
vt 0.749970 0.955092
vt 0.999960 0.954119
vt 0.278440 0.712149
vt 0.264225 0.447932
vt 0.048604 0.324359
vt 0.103016 0.338170
vt 0.089204 0.411366
vt 0.034793 0.397556
vt 0.048603 0.338166
vt 0.089209 0.338169
vt 0.089205 0.397559
vt 0.048599 0.397557
vt 0.758432 0.038641
vt 0.758424 0.098031
vt 0.799030 0.098037
vt 0.799038 0.038647
vt 0.731723 0.954358
vt 0.516944 0.954395
vt 0.087386 0.954470
vt 0.490445 0.140990
vt 0.016482 0.140920
vt 0.496166 0.985287
vt 0.253481 0.022697
vt 0.490463 0.022732
vt 0.745632 0.978868
vt 0.499980 0.956065
vt 0.496166 0.978868
vt 0.247629 0.978868
vt 0.750010 0.965337
vt 0.000008 0.462148
vt 0.000040 0.968256
vt 1.000000 0.964365
vt 0.250030 0.967283
vt 0.345397 0.447966
vt 0.560176 0.447966
vt 0.247629 0.985287
vt 0.271938 0.468662
vt 0.278449 0.462157
vt 0.020738 0.454434
vt 0.014233 0.447924
vt 0.006511 0.705635
vt 0.048599 0.411364
vt 0.103012 0.397560
vt 0.089210 0.324362
vt 0.034796 0.338165
vt 0.000000 0.978868
vt 0.006414 0.985287
vt 0.766583 0.978868
vt 0.531986 0.978868
vt 0.531986 0.968004
vt 0.766583 0.968004
vt 0.297705 0.978868
vt 0.297704 0.968004
vt 0.989018 0.978868
vt 0.999882 0.968004
vt 0.064720 0.968004
vt 0.075584 0.978868
vn 0.000000 0.000000 1.000000
vn 0.000000 0.000000 1.000000
vn 0.000000 0.000000 1.000000
vn 0.000000 0.000000 1.000000
vn 0.000000 1.000000 0.000000
vn 0.000000 1.000000 0.000000
vn 0.000000 1.000000 0.000000
vn 0.000000 1.000000 0.000000
vn 0.000000 0.000000 -1.000000
vn 0.000000 0.000000 -1.000000
vn 0.000000 0.000000 -1.000000
vn 0.000000 0.000000 -1.000000
vn 0.000000 -1.000000 0.000000
vn 0.000000 -1.000000 0.000000
vn 0.000000 -1.000000 0.000000
vn 0.000000 -1.000000 0.000000
vn 1.000000 0.000000 0.000000
vn 1.000000 0.000000 0.000000
vn 1.000000 0.000000 0.000000
vn 1.000000 0.000000 0.000000
vn -1.000000 0.000000 0.000000
vn -1.000000 0.000000 0.000000
vn -1.000000 0.000000 0.000000
vn -1.000000 0.000000 0.000000
vn -1.000000 0.000000 0.000000
vn -1.000000 0.000000 0.000000
vn -1.000000 0.000000 0.000000
vn -1.000000 0.000000 0.000000
vn 0.000000 0.000000 -1.000000
vn 0.000000 0.000000 -1.000000
vn 0.000000 0.000000 -1.000000
vn 0.000000 0.000000 -1.000000
vn 1.000000 0.000000 0.000000
vn 1.000000 0.000000 0.000000
vn 1.000000 0.000000 0.000000
vn 1.000000 0.000000 0.000000
vn 0.000000 0.000000 1.000000
vn 0.000000 0.000000 1.000000
vn 0.000000 0.000000 1.000000
vn 0.000000 0.000000 1.000000
vn 0.047643 -0.998864 0.000000
vn 0.047643 -0.998864 0.000000
vn 0.047643 -0.998864 0.000000
vn 0.047643 -0.998864 0.000000
vn 0.000000 -0.998864 0.047643
vn 0.000000 -0.998864 0.047643
vn 0.000000 -0.998864 0.047643
vn 0.000000 -0.998864 0.047643
vn -0.047643 -0.998864 0.000000
vn -0.047643 -0.998864 0.000000
vn -0.047643 -0.998864 0.000000
vn -0.047643 -0.998864 0.000000
vn 0.000000 -0.998864 -0.047643
vn 0.000000 -0.998864 -0.047643
vn 0.000000 -0.998864 -0.047643
vn 0.000000 -0.998864 -0.047643
vn -1.000000 0.000000 0.000000
vn -1.000000 0.000000 0.000000
vn -1.000000 0.000000 0.000000
vn -1.000000 0.000000 0.000000
vn 0.000000 0.000000 -1.000000
vn 0.000000 0.000000 -1.000000
vn 0.000000 0.000000 -1.000000
vn 0.000000 0.000000 -1.000000
vn 1.000000 0.000000 0.000000
vn 1.000000 0.000000 0.000000
vn 1.000000 0.000000 0.000000
vn 1.000000 0.000000 0.000000
vn 0.000000 0.000000 1.000000
vn 0.000000 0.000000 1.000000
vn 0.000000 0.000000 1.000000
vn 0.000000 0.000000 1.000000
vn -1.000000 0.000000 0.000000
vn -1.000000 0.000000 0.000000
vn -1.000000 0.000000 0.000000
vn -1.000000 0.000000 0.000000
vn 0.000000 0.000000 -1.000000
vn 0.000000 0.000000 -1.000000
vn 0.000000 0.000000 -1.000000
vn 0.000000 0.000000 -1.000000
vn 1.000000 0.000000 0.000000
vn 1.000000 0.000000 0.000000
vn 1.000000 0.000000 0.000000
vn 1.000000 0.000000 0.000000
vn 0.000000 0.000000 1.000000
vn 0.000000 0.000000 1.000000
vn 0.000000 0.000000 1.000000
vn 0.000000 0.000000 1.000000
vn 0.040947 -0.999161 0.000000
vn 0.040947 -0.999161 0.000000
vn 0.040947 -0.999161 0.000000
vn 0.040947 -0.999161 0.000000
vn 0.040947 0.999161 0.000000
vn 0.040947 0.999161 0.000000
vn 0.040947 0.999161 0.000000
vn 0.040947 0.999161 0.000000
vn 0.000000 0.999161 0.040947
vn 0.000000 0.999161 0.040947
vn 0.000000 0.999161 0.040947
vn 0.000000 0.999161 0.040947
vn 0.000000 -0.999161 0.040949
vn 0.000000 -0.999161 0.040949
vn 0.000000 -0.999161 0.040949
vn 0.000000 -0.999161 0.040949
vn -0.040947 -0.999161 0.000000
vn -0.040947 -0.999161 0.000000
vn -0.040947 -0.999161 0.000000
vn -0.040947 -0.999161 0.000000
vn -0.040947 0.999161 0.000000
vn -0.040947 0.999161 0.000000
vn -0.040947 0.999161 0.000000
vn -0.040947 0.999161 0.000000
vn 0.000000 -0.999161 -0.040949
vn 0.000000 -0.999161 -0.040949
vn 0.000000 -0.999161 -0.040949
vn 0.000000 -0.999161 -0.040949
vn 0.000000 0.999161 -0.040947
vn 0.000000 0.999161 -0.040947
vn 0.000000 0.999161 -0.040947
vn 0.000000 0.999161 -0.040947
vn 0.000000 0.014162 -0.999900
vn 0.000000 0.014162 -0.999900
vn 0.000000 0.014162 -0.999900
vn 0.000000 0.014162 -0.999900
vn 0.001359 0.000000 -0.999999
vn 0.001359 0.000000 -0.999999
vn 0.001359 0.000000 -0.999999
vn 0.001359 0.000000 -0.999999
vn 0.000000 -0.005227 -0.999986
vn 0.000000 -0.005227 -0.999986
vn 0.000000 -0.005227 -0.999986
vn 0.000000 -0.005227 -0.999986
vn -0.007252 0.000000 -0.999974
vn -0.007252 0.000000 -0.999974
vn -0.007252 0.000000 -0.999974
vn -0.007252 0.000000 -0.999974
vn 0.000000 1.000000 0.000000
vn 0.000000 1.000000 0.000000
vn 0.000000 1.000000 0.000000
vn 0.000000 1.000000 0.000000
vn 1.000000 0.000000 0.000000
vn 1.000000 0.000000 0.000000
vn 1.000000 0.000000 0.000000
vn 1.000000 0.000000 0.000000
vn 0.000000 -1.000000 0.000000
vn 0.000000 -1.000000 0.000000
vn 0.000000 -1.000000 0.000000
vn 0.000000 -1.000000 0.000000
vn -1.000000 0.000000 0.000000
vn -1.000000 0.000000 0.000000
vn -1.000000 0.000000 0.000000
vn -1.000000 0.000000 0.000000
s off
g roof_box
usemtl standardSurface15SG
f 1/1/1 2/2/2 8/50/3 5/51/4
f 9/3/5 10/4/6 11/6/7 12/5/8
f 6/12/9 7/52/10 4/8/11 3/7/12
f 3/67/13 4/68/14 2/10/15 1/9/16
f 2/2/17 4/11/18 7/13/19 8/50/20
f 3/7/21 1/1/22 5/51/23 6/12/24
f 14/14/25 13/53/26 21/57/27 22/23/28
f 37/42/29 38/43/30 39/44/31 40/45/32
f 16/16/33 15/54/34 23/25/35 24/56/36
f 13/53/37 16/16/38 24/56/39 21/57/40
f 6/81/41 5/82/42 13/83/43 14/84/44
f 7/87/45 6/81/46 14/84/47 15/88/48
f 8/85/49 7/90/50 15/89/51 16/86/52
f 5/82/53 8/85/54 16/86/55 13/83/56
f 18/74/57 17/17/58 9/3/59 12/5/60
f 12/5/61 11/6/62 19/19/63 18/18/64
f 20/70/65 19/20/66 11/6/67 10/4/68
f 17/72/69 20/21/70 10/4/71 9/3/72
f 26/27/73 25/59/74 27/29/75 28/66/76
f 28/66/77 29/64/78 30/33/79 26/27/80
f 31/34/81 30/35/82 29/65/83 32/62/84
f 25/59/85 31/34/86 32/62/87 27/29/88
f 22/69/89 21/80/90 25/79/91 26/61/92
f 17/17/93 18/74/94 28/30/95 27/63/96
f 18/18/97 19/19/98 29/32/99 28/31/100
f 23/55/101 22/69/102 26/61/103 30/60/104
f 24/26/105 23/55/106 30/60/107 31/58/108
f 19/20/109 20/70/110 32/71/111 29/36/112
f 21/22/113 24/26/114 31/58/115 25/28/116
f 20/21/117 17/72/118 27/73/119 32/37/120
f 22/23/121 23/24/122 34/49/123 33/46/124
f 23/24/125 15/15/126 35/48/127 34/49/128
f 15/15/129 14/14/130 36/47/131 35/48/132
f 14/14/133 22/23/134 33/46/135 36/47/136
f 33/38/137 34/77/138 38/43/139 37/42/140
f 34/39/141 35/76/142 39/44/143 38/43/144
f 35/40/145 36/75/146 40/45/147 39/44/148
f 36/41/149 33/78/150 37/42/151 40/45/152
